<?xml version="1.0" encoding="UTF-8"?>
<svg xmlns="http://www.w3.org/2000/svg" xmlns:xlink="http://www.w3.org/1999/xlink" viewBox="0 0 48 48" version="1.1" width="48px" height="48px">
<g id="surface1">
<path style=" fill:#F44336;" d="M 23.648438 24.898438 C 22.652344 23.289063 21.929688 21.953125 20.925781 19.441406 C 19.230469 15.199219 31.238281 11.367188 26.371094 4 C 28.480469 9.089844 18.792969 12.234375 17.894531 16.472656 C 17.070313 20.371094 23.644531 24.898438 23.648438 24.898438 Z "/>
<path style=" fill:#F44336;" d="M 23.878906 17.269531 C 23.6875 19.785156 26.105469 21.128906 26.175781 22.964844 C 26.234375 24.460938 24.730469 25.707031 24.730469 25.707031 C 24.730469 25.707031 27.457031 25.171875 28.308594 22.890625 C 29.253906 20.355469 26.476563 18.621094 26.761719 16.59375 C 27.027344 14.652344 32.792969 11.050781 32.792969 11.050781 C 32.792969 11.050781 24.3125 11.609375 23.878906 17.269531 Z "/>
<path style=" fill:#1565C0;" d="M 32.085938 25.054688 C 33.839844 24.660156 35.316406 25.777344 35.316406 27.066406 C 35.316406 29.964844 31.296875 32.707031 31.296875 32.707031 C 31.296875 32.707031 37.519531 31.964844 37.519531 27.203125 C 37.519531 24.054688 34.464844 23.265625 32.085938 25.054688 Z "/>
<path style=" fill:#1565C0;" d="M 29.128906 27.394531 C 29.128906 27.394531 31.070313 26.011719 31.585938 25.492188 C 26.824219 26.503906 15.949219 26.640625 15.949219 25.761719 C 15.949219 24.953125 19.457031 24.125 19.457031 24.125 C 19.457031 24.125 11.683594 24.011719 11.683594 26.304688 C 11.683594 28.695313 21.859375 28.867188 29.128906 27.394531 Z "/>
<path style=" fill:#1565C0;" d="M 27.933594 29.570313 C 23.425781 31.070313 15.121094 30.589844 17.582031 28.578125 C 16.382813 28.578125 14.605469 29.539063 14.605469 30.46875 C 14.605469 32.324219 23.589844 33.757813 30.238281 31.039063 Z "/>
<path style=" fill:#1565C0;" d="M 18.6875 32.738281 C 17.050781 32.738281 15.992188 33.792969 15.992188 34.5625 C 15.992188 36.953125 25.75 37.191406 29.617188 34.765625 L 27.160156 33.132813 C 24.269531 34.402344 17.015625 34.578125 18.6875 32.738281 Z "/>
<path style=" fill:#1565C0;" d="M 36.28125 36.632813 C 36.28125 35.695313 35.226563 35.253906 34.847656 35.042969 C 37.074219 40.417969 12.53125 40 12.53125 36.828125 C 12.53125 36.105469 14.339844 35.402344 16.007813 35.734375 L 14.589844 34.894531 C 11.261719 34.375 9 35.835938 9 37.015625 C 9 42.519531 36.28125 42.253906 36.28125 36.632813 Z "/>
<path style=" fill:#1565C0;" d="M 39 38.605469 C 34.855469 42.699219 24.339844 44.191406 13.769531 41.660156 C 24.339844 46.164063 38.949219 43.628906 39 38.605469 Z "/>
</g>
</svg>
